HIERARCHY
ROOT root
{
	OFFSET	0	13.1	24.9
	CHANNELS 6  Xposition Yposition Zposition Xrotation Yrotation Zrotation
	JOINT spine_1
	{
		OFFSET	0	9.99999	0
		CHANNELS 3  Xrotation Yrotation Zrotation
		JOINT spine_2
		{
			OFFSET	0	112	-10
			CHANNELS 3  Xrotation Yrotation Zrotation
			JOINT spine_3
			{
				OFFSET	0	206.5	19.3
				CHANNELS 3  Xrotation Yrotation Zrotation
				JOINT spine_4
				{
					OFFSET	0	110.4	14.6
					CHANNELS 3  Xrotation Yrotation Zrotation
					JOINT neck_1
					{
						OFFSET	0	71.8	-50.3
						CHANNELS 3  Xrotation Yrotation Zrotation
						JOINT neck_2
						{
							OFFSET	0	86.2	-25.8
							CHANNELS 3  Xrotation Yrotation Zrotation
							JOINT head_ee
							{
								OFFSET	0	179.8	-8.7
								CHANNELS 3  Xrotation Yrotation Zrotation
								End Site
								{
									OFFSET	1	0	0
								}
							}
						}
					}
					JOINT left_clavicle
					{
						OFFSET	-43.2	22.4	-70.8
						CHANNELS 3  Xrotation Yrotation Zrotation
						JOINT left_shoulder
						{
							OFFSET	-93.9	-5.79999	48.7
							CHANNELS 3  Xrotation Yrotation Zrotation
							JOINT left_elbow
							{
								OFFSET	-291.4	-30.8	15.2
								CHANNELS 3  Xrotation Yrotation Zrotation
								JOINT left_lowarm_twist
								{
									OFFSET	-110.7	-3.89999	13.6
									CHANNELS 3  Xrotation Yrotation Zrotation
									JOINT left_hand
									{
										OFFSET	-110.7	-3.89999	13.6
										CHANNELS 3  Xrotation Yrotation Zrotation
										JOINT left_ee
										{
											OFFSET	-80.8	-5.10001	12.1
											CHANNELS 3  Xrotation Yrotation Zrotation
											End Site
											{
												OFFSET	1	0	0
											}
										}
									}
								}
							}
						}
					}
					JOINT right_clavicle
					{
						OFFSET	43.2	22.4	-70.8
						CHANNELS 3  Xrotation Yrotation Zrotation
						JOINT right_shoulder
						{
							OFFSET	93.9	-5.79999	48.7
							CHANNELS 3  Xrotation Yrotation Zrotation
							JOINT right_elbow
							{
								OFFSET	291.4	-30.8	15.2
								CHANNELS 3  Xrotation Yrotation Zrotation
								JOINT right_lowarm_twist
								{
									OFFSET	110.7	-3.89999	13.6
									CHANNELS 3  Xrotation Yrotation Zrotation
									JOINT right_hand
									{
										OFFSET	110.7	-3.89999	13.6
										CHANNELS 3  Xrotation Yrotation Zrotation
										JOINT right_ee
										{
											OFFSET	80.8	-5.10001	12.1
											CHANNELS 3  Xrotation Yrotation Zrotation
											End Site
											{
												OFFSET	1	0	0
											}
										}
									}
								}
							}
						}
					}
				}
			}
		}
	}
	JOINT left_hip
	{
		OFFSET	-82.8	-127.5	0.300001
		CHANNELS 3  Xrotation Yrotation Zrotation
		JOINT left_knee
		{
			OFFSET	-28.2	-396.7	2.2
			CHANNELS 3  Xrotation Yrotation Zrotation
			JOINT left_ankle
			{
				OFFSET	-11.7	-411.3	35.4
				CHANNELS 3  Xrotation Yrotation Zrotation
				JOINT left_toes
				{
					OFFSET	0	-60	-88.6
					CHANNELS 3  Xrotation Yrotation Zrotation
					JOINT left_foot_ee
					{
						OFFSET	-22.5	-16.5	-42.2
						CHANNELS 3  Xrotation Yrotation Zrotation
						End Site
						{
							OFFSET	1	0	0
						}
					}
				}
			}
		}
	}
	JOINT right_hip
	{
		OFFSET	82.8	-127.5	0.300001
		CHANNELS 3  Xrotation Yrotation Zrotation
		JOINT right_knee
		{
			OFFSET	28.2	-396.7	2.2
			CHANNELS 3  Xrotation Yrotation Zrotation
			JOINT right_ankle
			{
				OFFSET	11.7	-411.3	35.4
				CHANNELS 3  Xrotation Yrotation Zrotation
				JOINT right_toes
				{
					OFFSET	0	-60	-88.6
					CHANNELS 3  Xrotation Yrotation Zrotation
					JOINT right_foot_ee
					{
						OFFSET	22.5	-16.5	-42.2
						CHANNELS 3  Xrotation Yrotation Zrotation
						End Site
						{
							OFFSET	1	0	0
						}
					}
				}
			}
		}
	}
}
MOTION
Frames: 15
Frame Time: 0.02
2136.93 694.087 -624.609 -90.0001 -88.2853 -90.0001 1.17139 0.1703 -0.363998 1.17145 0.193117 -0.352424 1.17024 0.256615 -0.309266 1.17017 0.204552 -0.345912 -12.3706 9.5951 3.92896 -12.4719 15.7256 6.54039 -0.0 0.0 -0.0 -0.728379 18.1076 1.01251 -35.1431 -35.4163 66.4884 0.380355 -10.6706 0.035521 -77.6323 -7.52077 5.30536 4.08959 -24.727 16.2421 -0.0 0.0 -0.0 8.59498 27.9346 -15.5283 8.7519 19.5617 -41.7102 2.14994 46.7974 -0.930393 12.5541 -0.270433 1.57768 0.372616 16.2726 4.42275 0.0 0.0 0.0 34.2219 1.42507 -1.74869 -3.1694 0.117458 0.472158 -12.4826 25.2421 1.94704 3.0708 -0.0 -0.0 -0.0 0.0 -0.0 -19.3458 20.839 -0.789982 -3.43009 -0.125952 -0.511266 24.1079 -9.61541 3.2307 -16.6723 0.0 0.0 0.0 0.0 0.0 
2155.45 692.41 -627.242 -90.0001 -89.0373 -90.0001 1.1637 -0.00841323 -0.282369 1.16374 0.00957161 -0.282332 1.1637 0.0631187 -0.275352 1.16359 0.0188399 -0.281865 -12.2295 9.86154 5.24786 -12.2862 15.3727 7.85081 -0.0 0.0 -0.0 -0.483561 17.7748 1.34254 -35.2182 -35.2263 66.3036 0.411901 -11.5327 0.0415954 -77.3132 -7.48009 5.30785 4.10508 -24.5821 16.4278 -0.0 0.0 -0.0 8.44623 27.5074 -15.2478 8.4089 19.6118 -41.9914 2.17724 47.1578 -0.950351 11.5321 -0.261418 1.44745 0.343235 15.8917 4.45647 0.0 0.0 0.0 34.4607 1.12447 -0.793554 -5.575 0.189061 0.834373 -14.5129 26.9714 2.28967 3.22184 -0.0 -0.0 -0.0 0.0 -0.0 -20.4137 22.095 -0.592738 -2.59017 -0.0979477 -0.385405 21.256 -10.2103 2.88967 -16.0554 0.0 0.0 0.0 0.0 0.0 
2179.6 698.27 -634.977 -90.0001 -88.5131 -90.0001 1.16648 -0.17403 -0.518523 1.16662 -0.140682 -0.528546 1.16797 -0.0375856 -0.545655 1.16757 -0.123289 -0.532871 -12.1319 9.80039 5.5785 -12.1701 15.03 8.13367 -0.0 0.0 -0.0 -0.22061 17.1988 1.67567 -35.1496 -35.1612 65.957 0.436017 -12.1883 0.0465521 -77.0907 -7.45174 5.30945 4.1133 -24.4709 16.5458 -0.0 0.0 -0.0 8.38343 26.9739 -15.1676 7.74143 19.2523 -42.3855 2.19389 47.3753 -0.962583 9.7728 -0.240464 1.22372 0.33727 15.6055 4.37377 0.0 0.0 0.0 34.6191 0.923462 0.432945 -7.27754 0.230513 1.09235 -17.745 28.1086 2.82524 3.09546 -0.0 -0.0 -0.0 0.0 -0.0 -20.5515 22.7623 -2.18052 -3.72369 -0.135305 -0.555353 19.2991 -11.4913 2.6509 -14.9781 0.0 0.0 0.0 0.0 0.0 
2207.7 698.613 -644.733 -78.6553 -87.9834 -77.354 1.21944 -0.239883 -0.640828 1.21965 -0.19862 -0.654793 1.22199 -0.0710998 -0.68055 1.22139 -0.177685 -0.660781 -11.4784 9.88536 5.89782 -11.4894 14.8826 8.37824 -0.0 0.0 -0.0 -0.0448095 17.6946 2.00389 -34.8892 -35.3722 66.2077 0.448637 -12.5301 0.0492533 -76.9707 -7.43643 5.31027 3.96448 -23.2134 16.2468 -0.0 0.0 -0.0 8.4507 26.5509 -15.3617 7.34312 18.9773 -42.7482 2.18126 47.2105 -0.953301 8.54048 -0.221698 1.06743 0.265742 15.3921 4.76311 0.0 0.0 0.0 34.7387 0.731936 1.094 -9.5652 0.274101 1.44067 -20.2466 29.2818 3.25158 2.84394 -0.0 -0.0 -0.0 0.0 -0.0 -20.7868 23.0986 -2.93866 -6.58628 -0.214608 -0.987463 18.1558 -13.2763 2.51324 -14.1791 0.0 0.0 0.0 0.0 0.0 
2231.87 703.067 -651.621 -70.9725 -88.1503 -69.3103 1.26206 -0.355344 -0.814793 1.26238 -0.302779 -0.835751 1.26692 -0.139827 -0.877837 1.26595 -0.276705 -0.844741 -11.0233 10.2598 6.01163 -11.0282 15.4439 8.5322 -0.0 0.0 -0.0 0.111566 17.7815 2.25277 -34.3972 -35.4881 65.5596 0.484651 -13.5004 0.0573642 -76.2245 -7.34123 5.31463 3.83857 -22.3234 15.8827 -0.0 0.0 -0.0 8.23667 24.2689 -15.1201 6.47904 17.9889 -42.9493 2.24075 47.9778 -0.997226 7.00686 -0.193657 0.873535 0.258937 15.9745 5.05826 0.0 0.0 0.0 33.8343 0.348706 -0.405594 -10.9706 0.29397 1.65539 -22.1697 27.5352 3.52373 2.36018 -0.0 -0.0 -0.0 0.0 -0.0 -20.6239 24.3416 -1.78308 -8.51586 -0.255835 -1.28069 15.7994 -15.8908 2.22088 -13.7464 0.0 0.0 0.0 0.0 0.0 
2251.84 698.628 -655.333 -81.0247 -88.1284 -78.9048 1.32767 -0.216647 -1.05127 1.32827 -0.149316 -1.06292 1.33116 0.0525263 -1.07207 1.32958 -0.117437 -1.06692 -9.83206 10.0424 4.5085 -9.85704 15.8514 6.87732 -0.0 0.0 -0.0 0.555815 17.741 2.92761 -33.674 -35.8391 65.1041 0.514673 -14.3033 0.0645773 -75.7281 -7.27786 5.31684 3.6527 -20.5245 15.5805 -0.0 0.0 -0.0 8.10385 22.5237 -14.988 6.25486 17.1936 -43.6522 2.4572 50.5876 -1.16133 5.92949 -0.170858 0.7378 0.225858 15.9448 5.2679 0.0 0.0 0.0 33.1429 -0.116889 -0.310588 -11.9587 0.304783 1.80662 -23.5838 26.4773 3.7264 2.12617 -0.0 -0.0 -0.0 0.0 -0.0 -20.2791 25.0725 -2.16048 -10.1332 -0.282765 -1.52739 12.9131 -16.8623 1.83972 -13.5635 0.0 0.0 0.0 0.0 0.0 
2271.02 696.41 -661.424 -85.7141 -87.4841 -83.2983 1.37648 -0.176126 -1.202 1.37728 -0.0992883 -1.21076 1.37949 0.12837 -1.20803 1.37746 -0.0640123 -1.21314 -9.03166 9.7829 3.7509 -9.05269 15.7677 5.9756 -0.0 0.0 -0.0 1.27252 17.4046 3.99749 -33.2072 -36.0977 64.3356 0.521244 -14.4782 0.0662104 -75.3744 -7.2327 5.31807 3.4756 -18.6694 15.3305 -0.0 0.0 -0.0 7.76161 21.354 -14.3353 5.89581 16.5462 -43.91 2.60696 52.2389 -1.2784 5.19265 -0.153796 0.645222 0.269725 15.9221 4.96336 0.0 0.0 0.0 32.8886 -0.669751 -0.672569 -12.591 0.310332 1.90347 -24.6264 26.8666 3.89992 1.978 -0.0 -0.0 -0.0 0.0 -0.0 -20.7921 25.6952 -1.6556 -11.2829 -0.297669 -1.70317 10.9127 -16.9312 1.56587 -13.4456 0.0 0.0 0.0 0.0 0.0 
2287.52 698.838 -667.967 -87.4103 -87.2849 -84.5489 1.40573 -0.159674 -1.42593 1.40686 -0.0686247 -1.43319 1.40871 0.199293 -1.42093 1.40589 -0.0275936 -1.43457 -8.33092 9.73885 3.52367 -8.33883 15.748 5.65483 -0.0 0.0 -0.0 1.94131 16.7667 4.98847 -32.5282 -36.3877 63.2918 0.526506 -14.6182 0.0675324 -75.1288 -7.20133 5.31876 3.33095 -17.0467 15.1539 -0.0 0.0 -0.0 7.45486 20.5654 -13.7273 5.2116 16.0642 -44.3943 2.64361 52.6252 -1.30745 5.03879 -0.150083 0.625919 0.301092 15.9056 4.74552 0.0 0.0 0.0 32.6164 -1.01879 -0.424613 -13.15 0.314349 1.98915 -24.8244 27.3977 3.9435 2.09787 -0.0 -0.0 -0.0 0.0 -0.0 -20.6622 26.1062 -1.4562 -11.8868 -0.304084 -1.79561 10.4559 -16.9147 1.50255 -13.7482 0.0 0.0 0.0 0.0 0.0 
2314.7 710.989 -673.83 -88.6811 -86.9373 -86.0199 1.37404 -0.12559 -1.32746 1.37502 -0.0408739 -1.33276 1.37609 0.20862 -1.31697 1.37366 -0.00196956 -1.33338 -8.44478 9.37611 3.39382 -8.45469 15.1738 5.45877 -0.0 0.0 -0.0 2.51242 16.5366 5.86893 -31.9766 -36.495 62.484 0.538491 -14.9362 0.0705891 -75.5757 -7.2584 5.3174 2.96179 -12.5411 14.7679 -0.0 0.0 -0.0 7.55267 20.5148 -13.9457 3.42345 15.194 -45.5588 2.3956 49.8729 -1.11398 4.64735 -0.140404 0.576852 0.589225 19.85 4.51839 0.0 0.0 0.0 31.9552 -1.44133 -0.288508 -15.6115 0.322084 2.3667 -23.3175 27.6355 3.70909 3.83531 -0.0 -0.0 -0.0 0.0 -0.0 -17.7792 26.3386 -1.59475 -16.6031 -0.320616 -2.51883 10.8711 -16.856 1.5598 -13.3056 0.0 0.0 0.0 0.0 0.0 
2332.65 728.459 -678.226 -84.5815 -87.2465 -81.892 1.21143 -0.215636 -1.33807 1.21242 -0.130062 -1.34908 1.21568 0.1278 -1.34929 1.21315 -0.0868793 -1.35254 -9.18489 9.44674 4.06487 -9.19689 14.9398 6.21963 -0.0 0.0 -0.0 3.29539 15.8855 7.08081 -30.974 -36.7293 61.1745 0.53301 -14.7909 0.0691831 -76.0675 -7.3212 5.31539 2.61504 -6.51856 15.0521 -0.0 0.0 -0.0 7.47656 19.9541 -13.8237 0.483834 13.9782 -46.5058 2.19992 47.4537 -0.967023 4.05186 -0.125035 0.502337 1.04604 23.8505 3.2639 0.0 0.0 0.0 31.9003 -2.03942 -0.53932 -20.9756 0.282767 3.1885 -20.305 25.8469 3.19486 8.25942 -0.0 -0.0 -0.0 0.0 -0.0 -15.838 26.4177 -1.4168 -23.0774 -0.246415 -3.50895 11.0189 -15.4962 1.57473 -12.2163 0.0 0.0 0.0 0.0 0.0 
2347.4 732.454 -685.265 -80.6642 -87.6272 -77.9622 1.17496 -0.277252 -1.34149 1.17594 -0.191335 -1.35641 1.18071 0.069844 -1.36806 1.17813 -0.147071 -1.36192 -9.66188 9.54339 5.74374 -9.63192 14.0431 7.92743 -0.0 0.0 -0.0 4.06492 15.1912 8.30111 -29.4499 -37.3128 60.4321 0.541333 -15.0115 0.0713236 -77.2876 -7.47683 5.30804 2.41474 0.0130454 16.3639 -0.0 0.0 -0.0 7.53382 20.8185 -13.8796 -0.173822 14.4156 -46.6815 1.96337 44.1992 -0.79729 4.93776 -0.147617 0.613248 1.28361 25.3135 2.37647 0.0 0.0 0.0 29.7338 -3.16782 0.168498 -19.7988 0.297979 3.00858 -17.9456 24.561 2.80183 11.5521 -0.0 -0.0 -0.0 0.0 -0.0 -11.1717 25.7835 -2.36289 -27.3378 -0.136794 -4.15343 7.17516 -12.8476 1.03304 -12.1091 0.0 0.0 0.0 0.0 0.0 
2365.33 739.593 -687.758 -61.5653 -88.5192 -58.1168 0.89205 -0.448168 -1.7074 0.893608 -0.33863 -1.73245 0.904426 0.00513764 -1.76522 0.900181 -0.273667 -1.74389 -10.0053 9.52074 6.58945 -9.94768 13.4835 8.77592 -0.0 0.0 -0.0 4.92118 14.0678 9.69973 -27.5079 -38.1788 59.9629 0.56176 -15.551 0.0767072 -78.4153 -7.62047 5.29828 2.16965 6.49219 17.1407 -0.0 0.0 -0.0 7.51314 19.8444 -13.9124 -2.39186 14.2031 -47.061 1.79764 41.681 -0.684361 3.65432 -0.114344 0.45268 1.87864 27.1645 -0.593256 0.0 0.0 0.0 27.3135 -4.15682 0.147869 -19.0482 0.30575 2.89366 -14.4126 22.2632 2.22102 15.3309 -0.0 -0.0 -0.0 0.0 -0.0 -8.44972 24.4548 -2.06942 -31.7521 0.0270207 -4.81091 6.60279 -9.09416 0.949155 -11.7718 0.0 0.0 0.0 0.0 0.0 
2385.6 740.682 -691.824 -29.3609 -89.0998 -25.5457 0.775261 -0.492258 -1.88728 0.777166 -0.37119 -1.91476 0.790342 0.0125689 -1.95036 0.785155 -0.295553 -1.92788 -10.2563 9.43238 7.21026 -10.1739 12.9419 9.37764 -0.0 0.0 -0.0 5.54656 13.2539 10.7552 -26.3486 -38.7598 59.3496 0.571909 -15.8179 0.0794508 -79.4262 -7.74899 5.2871 2.01232 11.0546 17.687 -0.0 0.0 -0.0 7.48876 19.0658 -13.9186 -3.96204 14.0701 -47.3392 1.69725 40.0526 -0.61867 2.5445 -0.0826768 0.314454 2.36099 28.3129 -3.11075 0.0 0.0 0.0 24.7177 -6.97589 0.906168 -18.7186 0.308686 2.84319 -10.0767 20.2737 1.53368 18.9127 -0.0 -0.0 -0.0 0.0 -0.0 -6.00468 23.4322 -3.21649 -38.05 0.347393 -5.72335 6.28969 -7.98315 0.90488 -10.9519 0.0 0.0 0.0 0.0 0.0 
2408.28 738.035 -697.962 4.52231 -89.0728 8.54449 0.783042 -0.567977 -1.98504 0.785126 -0.440539 -2.01714 0.80152 -0.0357372 -2.06436 0.795755 -0.361248 -2.03283 -10.4287 9.35512 7.60163 -10.3291 12.5645 9.75145 -0.0 0.0 -0.0 6.0814 12.4344 11.6844 -25.3167 -39.4844 58.7745 0.600715 -16.5719 0.0874853 -80.1441 -7.84011 5.27778 1.9074 14.2385 18.0537 -0.0 0.0 -0.0 7.48419 18.508 -13.9498 -5.04754 14.0153 -47.7073 1.62951 38.9079 -0.575602 1.6387 -0.0548485 0.202103 2.70319 28.7268 -5.07549 0.0 0.0 0.0 21.6783 -9.03976 0.9098 -18.8455 0.30759 2.86262 -6.661 18.8259 1.00392 21.614 -0.0 -0.0 -0.0 0.0 -0.0 -3.65665 22.7562 -3.26152 -42.4041 0.626754 -6.33151 5.76003 -7.26161 0.830103 -10.5269 0.0 0.0 0.0 0.0 0.0 
2413.6 740.182 -701.495 113.932 -89.1507 117.936 0.673504 -0.666582 -2.08118 0.675756 -0.532831 -2.11935 0.696569 -0.102218 -2.18289 0.690196 -0.445602 -2.13938 -11.4803 9.26531 8.28051 -11.36 12.1468 10.4791 -0.0 0.0 -0.0 6.6165 11.1848 12.6543 -23.1146 -40.4758 58.1609 0.65578 -17.9967 0.103847 -79.9704 -7.81808 5.28014 1.89731 16.4732 18.7035 -0.0 0.0 -0.0 7.41298 17.867 -13.8403 -6.70137 13.8528 -48.3061 1.64072 39.0999 -0.582654 0.493498 -0.0171267 0.0606999 2.9751 28.7159 -6.80898 0.0 0.0 0.0 19.565 -10.4055 0.604395 -18.4573 0.310808 2.80315 -4.09936 17.7917 0.613196 23.5128 -0.0 -0.0 -0.0 0.0 -0.0 -2.40219 22.2062 -1.66913 -45.7133 0.869651 -6.77882 5.38461 -6.54855 0.777081 -10.2668 0.0 0.0 0.0 0.0 0.0 
